<svg viewBox="0 0 1100 650" role="img" aria-label="같은 지형을 같은 자로 비교해 경계 이동을 기록" xmlns="http://www.w3.org/2000/svg">
  <path d="M64 448 L164 356 L264 398 L364 274 L464 338 L564 225 L664 328 L764 248 L868 354 L1030 280" fill="none" stroke="var(--line)" stroke-width="12" stroke-linejoin="round"/>
  <path d="M64 402 L164 326 L264 350 L364 238 L464 288 L564 172 L664 272 L764 190 L868 292 L1030 224" fill="none" stroke="var(--brand)" stroke-width="12" stroke-linejoin="round"/>
  <path d="M110 535 H990" stroke="var(--fg)" stroke-width="5"/><g stroke="var(--fg)" stroke-width="3"><line x1="110" y1="520" x2="110" y2="550"/><line x1="330" y1="520" x2="330" y2="550"/><line x1="550" y1="520" x2="550" y2="550"/><line x1="770" y1="520" x2="770" y2="550"/><line x1="990" y1="520" x2="990" y2="550"/></g>
  <text x="64" y="95" fill="var(--muted)" font-size="23">같은 지형 · 같은 조건 · 같은 판정 자</text><text x="64" y="150" fill="var(--fg)" font-size="40" font-weight="900">경계가 얼마나 이동했는가</text>
  <line x1="828" y1="92" x2="900" y2="92" stroke="var(--line)" stroke-width="8"/><text x="918" y="100" fill="var(--muted)" font-size="18">기준선</text><line x1="828" y1="136" x2="900" y2="136" stroke="var(--brand)" stroke-width="8"/><text x="918" y="144" fill="var(--brand)" font-size="18">학습 후</text>
  <text x="110" y="592" fill="var(--accent)" font-size="22" font-weight="800">결과보다 먼저, 다시 잴 수 있는 기록을 남긴다</text>
</svg>
